PathFileType	4	(X/Y/Z)	OpenSim_Sub07_EMGBaseline_Accel.trc
DataRate	CameraRate	NumFrames	NumMarkers	Units	OrigDataRate	OrigDataStartFrame	OrigNumFrames
100	100	30	8	m	100	1708	6828
Frame#	Time	torso_imu_offset_imu	pelvis_imu_offset_imu	tibia_r_imu_offset_imu	femur_r_imu_offset_imu	tibia_l_imu_offset_imu	femur_l_imu_offset_imu	toes_r_imu_offset_imu	toes_l_imu_offset_imu
				X1	Y1	Z1	X2	Y2	Z2	X3	Y3	Z3	X4	Y4	Z4	X5	Y5	Z5	X6	Y6	Z6	X7	Y7	Z7	X8		Y8	Z8	

1708	17.07000000	-8.94318500	0.87774200	6.36113300	9.57573500	0.88390900	2.16516400	9.65851400	-0.69477600	0.23619500	8.84017000	-0.72995200	0.00668800	10.54945600	1.00668400	2.43070800	9.51510700	4.78589300	1.90161400	4.91836900	1.25565000	8.56123300	14.13053000	6.75992200	3.59450000
1709	17.08000000	-9.05489800	0.82906000	6.43358000	9.47837400	1.20058300	2.21522400	9.74725400	0.08201300	-0.03632300	9.08870200	-0.83940700	-0.02341900	10.63176400	-0.15571000	1.90084300	10.08940100	8.33030900	2.33273800	4.82689300	1.35546400	8.62277900	13.71631600	1.26776800	3.51559300
1710	17.09000000	-9.11370500	0.77454700	6.38625500	9.19469400	1.61730900	2.17257700	10.02144200	0.50369400	-0.38545300	9.35935600	-1.03297800	-0.19950800	13.15811000	-2.15402000	-0.01244700	10.57843200	10.47694800	2.62595800	5.35269400	1.54864500	8.48350500	15.55369300	-5.00687400	1.37170800
1711	17.10000000	-8.99488700	0.69244300	6.23015600	9.03115500	1.77243700	1.80919000	10.01724200	0.92783600	-0.52989300	9.37599400	-0.89366900	-0.36785800	13.80373600	-3.20898600	-2.34558900	10.16273500	11.54828700	2.28063300	5.18695100	1.69622800	8.55038500	17.49170500	-2.38327000	3.70768900
1712	17.11000000	-8.86484100	0.69665200	6.22339900	9.00663100	1.81541600	1.47779200	9.91519200	1.55211100	-0.55650900	9.30426800	-0.43920800	-0.40498400	11.69902800	-3.86610200	-3.39947500	9.35971300	12.03282900	2.00294200	5.10842900	1.43131400	8.57368300	17.43651300	-1.39909800	3.71400600
1713	17.12000000	-8.86840100	0.69318800	6.11003000	9.01197500	1.69106400	1.22823100	9.86989700	1.61035000	-0.70264300	9.43385600	0.02611700	-0.39501500	9.35145200	-4.19763300	-2.65546700	7.98704300	11.57864800	1.33800800	5.11655600	1.37705200	8.68380100	16.56538400	-2.05993600	2.54104600
1714	17.13000000	-8.96380300	0.72212300	6.08442300	9.14208700	1.66678400	1.02301700	9.98804000	1.22428300	-0.74711700	9.60030700	0.31230500	-0.55396300	8.56988000	-3.30298200	-0.84706300	6.64610700	10.12202000	0.17073700	5.05623000	1.34042700	8.62928700	15.79802400	-2.53549700	1.25040200
1715	17.14000000	-9.10197600	0.77515500	6.16866900	9.34150400	1.82502700	0.77351000	9.92049700	1.15239300	-0.62731300	9.69499400	0.48350600	-0.73000400	8.87395900	-1.78171800	0.63327800	6.32768300	8.29507500	-0.90055500	4.99979300	1.23131800	8.67399800	15.12868500	-2.34119500	0.27853700
1716	17.15000000	-9.23496800	0.83207700	6.16707800	9.47920700	2.13997600	0.87025800	9.77823000	1.19008300	-0.49252600	9.49904500	0.63295300	-1.09568700	9.66962100	-1.39800600	2.09475900	7.07171600	5.53279300	-1.43665300	4.77756000	1.07799000	8.72024100	9.58738800	4.34282000	-2.55140500
1717	17.16000000	-9.36477700	0.84345000	6.38985900	9.85172300	2.37519200	1.11088500	10.07726700	1.39059500	-0.35345900	9.65758900	0.66335400	-1.24308000	11.53997000	-0.98582800	2.21618500	8.50956700	2.60529500	-1.35491600	3.73246300	2.25664500	10.27718000	12.15210600	4.49044400	-5.71617200
1718	17.17000000	-9.76428200	0.90317800	6.53866100	10.28691200	2.39862600	1.25346100	10.79102200	1.76706500	0.07822100	10.53570000	0.72440100	-1.16884200	12.71066400	0.38896700	1.70690800	8.64393000	1.06056100	-0.47072200	4.35985000	0.83571600	8.90089800	14.84770700	-7.20919200	-9.66666600
1719	17.18000000	-10.01867300	0.92478700	6.68173600	10.98589800	2.11353600	1.67774100	11.07315900	1.75170600	-0.04837100	10.81933800	1.10377000	-0.96901100	12.39124400	1.77627000	1.63298500	7.98402200	1.07431500	0.29570500	4.78258500	1.54033100	9.12921200	5.83992600	-5.31998400	12.77756700
1720	17.19000000	-10.30023900	1.00651100	6.94564700	11.74738800	1.75237000	2.41027800	10.95682700	1.78655100	-0.15622900	10.46605700	1.04640300	-0.71399700	13.00595200	3.12238500	1.29787700	9.58644500	1.58895200	-0.33798200	4.79734800	2.00852800	9.21963200	7.24359900	1.50408200	19.27202000
1721	17.20000000	-10.79260400	1.09448300	7.25873400	12.14351300	1.04391400	2.64481000	10.91507200	2.03923000	-0.06308500	10.42123500	0.38177500	-0.27341400	12.51634800	5.52373400	1.16827000	11.92423200	3.00895500	-0.88708900	4.54869200	1.87682600	9.40055900	-4.22270700	-5.73404900	12.57402400
1722	17.21000000	-10.90506400	1.12138200	7.21170100	11.62734400	0.71691600	2.28072500	11.06993600	1.79926200	0.27326500	10.66059300	-0.36334800	-0.02922300	9.73685800	6.28391100	3.11146300	12.09640900	5.09809300	-0.79059400	4.19012200	1.43587200	9.65235000	-0.23926800	-7.60388400	6.63807900
1723	17.22000000	-10.38714500	1.05839600	6.98667500	10.61861300	0.19362500	2.04420900	11.26976700	1.74756300	0.58931400	10.75359800	-0.71954500	0.14415400	7.98854100	3.67455000	6.14083200	11.36937000	6.28749400	-0.58734600	4.23466400	1.04078800	9.78833300	12.12805900	-3.18947100	14.94146400
1724	17.23000000	-9.89238200	0.88625700	6.91326800	10.45677200	0.45099300	2.45915800	11.19087800	2.16051000	0.43135200	10.71063500	-0.88810300	0.15128900	9.67344200	-0.51287700	7.19222300	11.24713900	6.06890900	0.23603100	4.27125100	1.20483300	9.68542100	27.78187400	-2.22835100	18.45850000
1725	17.24000000	-10.29947800	0.84607800	6.94753600	10.94594200	0.44252900	3.39457200	11.34768000	2.36658500	0.47792400	10.56971300	-1.50791000	0.04327600	14.97053800	-2.18859800	5.28753600	12.35634100	5.35762100	1.94038200	4.50081700	1.36765800	9.64683400	26.76950300	2.80990600	19.51243800
1726	17.25000000	-11.16431700	0.85942000	7.08733200	11.46738600	-0.01867500	3.79051900	11.72728000	2.32326800	0.80613200	10.70676500	-2.35855300	0.10067200	18.60412900	-1.56916800	1.74093700	14.42668900	5.06648300	3.65105000	4.32195100	1.21428000	10.10155900	9.21561600	3.92632700	13.16608100
1727	17.26000000	-11.39012600	0.81255600	7.04929000	11.29341100	-0.36773400	3.17127300	12.12872500	2.10277900	1.80267700	10.83032600	-2.98372000	0.19258700	15.45839400	-0.60419000	-0.31302700	15.56970800	3.87981900	4.30800300	4.51735000	1.21852200	10.31411300	4.32982400	3.04471000	11.26734800
1728	17.27000000	-10.92685400	0.64063900	6.85757100	10.64036500	-0.16389700	2.46302400	12.40026200	1.83775800	2.52780600	10.69648900	-3.06199000	0.01128800	9.18965600	-1.39945900	0.66898400	12.75329300	1.06072100	3.45828000	4.41006300	0.32741500	10.48706600	6.75791000	0.08228800	12.34659700
1729	17.28000000	-10.36936400	0.62336200	6.58249000	10.31394600	0.64634300	2.32183300	12.66888800	1.51072400	2.86149400	10.30197900	-2.72751900	-0.17366600	5.55688500	-4.38482400	1.11890700	8.15337300	-2.30239600	-0.93435900	4.07483700	1.00099000	10.35124200	6.24694900	-2.64112400	11.02961400
1730	17.29000000	-10.20455900	0.73829100	6.29633600	10.55018700	1.49553400	2.44011700	13.02899600	1.47842700	3.10747800	10.02968000	-2.29695200	-0.07190300	4.78225500	-7.12043400	-0.95474700	6.57170400	-4.41395600	-4.40305400	4.62204000	1.50837900	9.96422100	5.55127900	1.27927300	10.72963100
1731	17.30000000	-10.16432800	0.87074400	6.14588000	10.64215700	1.96047600	2.74792100	13.10954300	1.67573700	3.41202500	9.96549000	-1.93569000	0.33803100	6.41382400	-8.06134400	-2.60259100	7.17256000	-5.16263600	-3.02178300	4.53978100	1.36905400	10.36585200	6.11451100	3.68957700	11.31340500
1732	17.31000000	-10.13430900	0.85650100	6.05494400	10.46245000	1.89307800	3.23348400	13.31047800	2.07456300	3.19783400	9.93819900	-1.56356600	0.82537000	7.53759900	-8.19539800	-2.69951500	7.89612500	-4.65650700	-1.46190600	4.53536100	1.78816400	9.48472500	6.30838100	2.15281800	10.43307700
1733	17.32000000	-9.96410700	0.73780200	5.99243900	10.02195700	1.52164300	3.64176400	13.50726600	1.40932700	2.30762600	9.81372000	-1.00487500	0.90092200	8.25301200	-7.35597700	-1.75033200	8.87517300	-3.09306700	-2.84778300	7.44163400	0.16782700	11.93515400	5.51241200	1.59556900	11.08528700
1734	17.33000000	-9.56258700	0.54375500	6.00710100	9.70181200	1.08845600	3.97211100	13.74808300	0.50762800	1.66512200	9.56523500	-0.71500200	0.45831800	9.50356200	-6.11181300	-0.43099100	9.87156300	-0.88259500	-4.00288600	6.37873900	-0.77144900	9.88756600	5.22013700	1.18778700	11.15795900
1735	17.34000000	-9.23227500	0.37022400	5.91181900	9.79112300	0.65279100	4.18567400	13.66892200	-0.01839800	0.32996800	9.31777600	-0.56950500	-0.00984400	10.93103900	-4.67148800	0.66371400	11.13570200	1.79886900	-3.26812800	6.43597300	1.90761000	9.45754500	4.51590000	1.10553500	11.48024800
1736	17.35000000	-8.95648500	0.25837400	5.82210500	9.66382200	0.16489200	4.36744800	13.21089400	0.18153800	-1.08141200	8.89468700	-0.17880600	-0.53478500	11.36635500	-2.70420500	1.55987000	11.64531400	4.39866900	-2.34410700	9.26987100	0.16308800	8.67739900	6.80649300	1.21639000	10.51312800
1737	17.36000000	-8.60617800	0.26215900	5.75815600	9.22122800	-0.04128000	4.42216300	12.62262900	1.79336400	-1.64464700	8.54864700	0.15174100	0.38514400	10.70149200	-0.96190500	1.59688900	10.54614100	5.93551600	-1.93307000	11.52763200	-1.88979800	10.67587600	5.87533900	0.78973800	10.73981100
